<svg width="360" height="60" xmlns="http://www.w3.org/2000/svg">
  <defs>
    <linearGradient id="greenGradient" x1="0%" y1="0%" x2="0%" y2="100%">
      <stop offset="0%" style="stop-color:#4a8f4e;stop-opacity:1" />
      <stop offset="100%" style="stop-color:#386c3b;stop-opacity:1" />
    </linearGradient>
    <filter id="softShadow" x="-10%" y="-10%" width="120%" height="120%">
      <feGaussianBlur in="SourceAlpha" stdDeviation="1" />
      <feOffset dx="0" dy="1" result="offsetblur" />
      <feComponentTransfer>
        <feFuncA type="linear" slope="0.3" />
      </feComponentTransfer>
      <feMerge>
        <feMergeNode />
        <feMergeNode in="SourceGraphic" />
      </feMerge>
    </filter>
  </defs>
  <!-- 主背景 -->
  <rect width="360" height="60" rx="8" ry="8" fill="url(#greenGradient)" stroke="#386c3b" stroke-width="0.5" filter="url(#softShadow)" />
  
  <!-- 左侧装饰 - 新的云纹图案 -->
  <g transform="translate(10, 10) scale(0.022, 0.022)">
    <path d="M537.603308 362.151182c75.817547-8.600594 123.186975 40.224318 164.866779 64.041349 23.817031-14.951803 112.866262-34.005427 151.899728 14.951803 35.725546 44.723091 77.40535-17.862773 129.27355 58.351725 83.491924 122.657708-88.652281 298.639101-142.902184 188.683809-8.468278-17.201189 0-51.47125 0-51.471249s3.969505-12.570099 5.689624-17.201189c-40.488952 32.285308-48.692596 86.270578-22.890813 142.902184 30.565189 66.952319 103.207133 109.955291 164.866779 149.253392 163.808244 104.265667 309.753715 89.313865 443.658354 8.865228 55.308438-33.079209 127.15648-109.16139 163.411293-140.917432 36.254813-31.756041 89.313865-49.618814 149.385709-49.618813-0.926218 0.132317 92.224835 14.554852 92.224835 14.819485-104.133351 17.862773-175.716759 26.860318-211.442305 59.542577-59.674893 54.77917-124.24551 129.008916-201.783176 169.497868-233.142266 122.260757-563.802042-5.689624-691.88474-131.522936-49.618814-48.824913-73.435844-119.21747-102.942499-188.683809-18.788991-44.32614-31.756041-65.496834-57.690141-102.545549-17.333506-24.875565-41.679804-38.768833-71.451092-38.768833 0.661584 0-29.771288 26.595684-29.771288 26.860318 50.677348-17.862773 65.496834 0 73.171211 17.201189 0.396951-2.91097 5.954258 16.539605 5.689624 22.890813-1.455485 40.356635-25.404833 64.173666-91.430934 39.959684-52.662101-19.185941-70.524874-148.988758-34.270061-200.195374 19.847526-28.44812 71.583409-52.529784 114.321747-57.160873z" fill="#D0BE92" opacity="0.9"/>
    <path d="M1378.212172 333.570746c25.007882-4.631089 153.619848-1.587802 171.482621 5.689624 23.552397 9.659129 37.842615 51.338933 62.850497 57.160873 60.865745 14.157902 119.349787 5.160357 142.902184 68.672438 32.549942 87.593746-27.918853 171.48262-91.430934 182.994186-13.231684 2.381703-39.959685-5.689624-39.959685-5.689624-55.043804-20.376793-87.726063-62.718181-40.092002-102.942499 5.954258-5.160357-5.689624-17.201189-5.689624-17.201189-44.987725 32.020675-58.748676 65.761468-27.124951 97.517509 98.31141 98.31141 150.57656 12.173149 215.808761 11.114614 61.395012-1.190852 162.485076 75.28828 186.302106 119.879054-53.588319-23.817031-108.499806-40.356635-148.988758-44.723091-106.382737-11.379248-182.729552 15.745704-243.198346 50.545032-80.580954 46.310893-157.589353 136.154025-257.223931 154.413748-126.494896 22.890813-240.816643-48.295645-222.95387-165.792996 2.381703-15.87802 20.376793-34.137744 28.580437-45.781626 0.793901 0.132317 16.804238-4.234139 22.890812-5.689624-39.695051 158.250937 112.204678 211.839256 204.56183 155.339967 46.707843-28.580437 80.448637-74.494379 92.357152-142.902184 10.320713-59.674893-5.954258-107.176638-53.588319-142.902184 15.216436-50.545032 13.893268-94.209588-3.043287-138.138777-12.040832-30.565189-63.776715-78.596201 5.689624-91.430935z" fill="#D0BE92" opacity="0.9"/>
    <path d="M606.275746 1.852436c88.25533-7.012792 125.965629 16.274971 165.792997 62.850497 37.577982-19.847526 134.169273-10.982297 177.304561 34.270061 95.665073 100.693113 19.979842 196.622819-80.051686 246.638584-47.634061 23.817031-134.036956-2.91097-125.171728-59.542577 11.379248-71.980359 98.70836-85.873627 79.390102-9.791446-14.290218 0-1.455485 8.203644 0 5.689624 0 0 15.613387-7.277426 18.921308-28.712753 4.234139-29.506655-14.819486-48.295645-35.725546-50.677349-80.448637-8.997545-133.243055 101.22238-46.046259 147.930224 180.480165 96.591291 201.783176-130.596718 377.367618-91.563251 60.468794 13.364001 64.4383 76.082181 97.252875 97.252875 37.710298 24.346298 72.77426 4.763406 97.120559 39.959684 33.343843 47.766378 32.946892 111.940044 17.201188 171.482621 16.936555 19.053624 43.796873 48.824913 51.47125 62.850497 9.923763 18.127407 1.323168 66.290735 1.323168 66.290736-38.768833 253.122109-342.435974 130.993668-226.261791-20.773744-3.837188-0.661584 25.140199-6.483525 30.56519-5.42499 12.173149 1.984753 19.318258 16.671921 28.580436 22.890813-2.646337 24.213981-17.598139 42.076754-5.689624 62.850497 80.448637-142.902184-107.044321-139.064995-154.810699-50.545032-14.554852 27.124952-22.096912 73.965112-11.908515 113.130896 11.776198 45.913942 57.028557 79.787053 95.268123 95.268122 110.219925 44.723091 208.399018 8.997545 276.939139-47.634061 9.394495-7.674377 90.240083-64.305983 125.171728-80.448637-89.313865 83.359607-214.088642 204.95878-402.110867 166.719215-75.949864-15.48107-155.869234-51.8682-211.442306-95.268123-23.817031-18.656674-92.621786-73.568161-105.985786-101.354697-8.203644-16.804238-6.483525-26.992635-11.379248-51.471249 78.596201 108.102856 206.678899-28.84507 197.813671-139.064996-1.720119-21.699961-3.969505-42.473705-11.908515-59.542576-33.608477-73.568161-77.40535-74.494379-134.036956-74.494379-20.773743-26.860318-92.357152-77.40535-172.805789-41.679804-47.634061-32.814576-111.807727-58.748676-148.856441-56.631606-104.265667 5.954258-160.235689 38.5042-178.62773 136.947926-14.422535 75.420597 29.771288 125.039411 41.679804 175.716759-29.771288-68.540121-61.92428-122.393074-113.130896-122.12844-47.104794 0.264634-71.451092 32.814576-68.540121 68.540121 0.529267 5.42499 5.954258 23.817031 17.862773 35.725546 0 0 22.361545 9.394495 26.728001 11.908516-45.120041-44.061507-14.819486-104.265667 46.310893-89.710816 54.77917 12.96705 60.865745 116.571133 5.689624 160.103373-28.315803 22.361545-126.362579 31.226773-171.614938 28.580437C89.049231 734.358444 27.124952 686.459749 11.511565 618.845846c-7.012792-29.638971-17.333506-73.965112-5.689624-108.632123 2.249386-7.54206 16.936555-26.595684 22.890813-40.092002 0 0 6.880476-28.977387 5.689624-39.959685-6.615842-57.425507 17.862773-130.464401 91.430934-137.212559 65.629151-6.218891 40.488952 99.899212 211.574622 85.74131 22.229229-1.852436 47.501744-24.610932 58.219408-42.473705 22.758496-38.107249 7.674377-104.133351-46.707843-123.319292-21.832278-7.674377-54.514537-7.674377-66.423052 16.142655 0 0-2.91097 35.725546 2.91097 53.588318-5.954258-62.585864 92.357152-80.448637 92.357152 8.865228 0 157.853986-354.476806 26.860318-148.988758-175.849076 67.216953-66.290735 173.202739-78.463884 280.24706-45.781625C530.325882 34.667011 554.275229 5.160357 606.143429 1.190852z" fill="#D0BE92" opacity="0.9"/>
  </g>
  
  <!-- 右侧装饰 - 镜像云纹图案 -->
  <g transform="translate(350, 10) scale(-0.022, 0.022)">
    <path d="M537.603308 362.151182c75.817547-8.600594 123.186975 40.224318 164.866779 64.041349 23.817031-14.951803 112.866262-34.005427 151.899728 14.951803 35.725546 44.723091 77.40535-17.862773 129.27355 58.351725 83.491924 122.657708-88.652281 298.639101-142.902184 188.683809-8.468278-17.201189 0-51.47125 0-51.471249s3.969505-12.570099 5.689624-17.201189c-40.488952 32.285308-48.692596 86.270578-22.890813 142.902184 30.565189 66.952319 103.207133 109.955291 164.866779 149.253392 163.808244 104.265667 309.753715 89.313865 443.658354 8.865228 55.308438-33.079209 127.15648-109.16139 163.411293-140.917432 36.254813-31.756041 89.313865-49.618814 149.385709-49.618813-0.926218 0.132317 92.224835 14.554852 92.224835 14.819485-104.133351 17.862773-175.716759 26.860318-211.442305 59.542577-59.674893 54.77917-124.24551 129.008916-201.783176 169.497868-233.142266 122.260757-563.802042-5.689624-691.88474-131.522936-49.618814-48.824913-73.435844-119.21747-102.942499-188.683809-18.788991-44.32614-31.756041-65.496834-57.690141-102.545549-17.333506-24.875565-41.679804-38.768833-71.451092-38.768833 0.661584 0-29.771288 26.595684-29.771288 26.860318 50.677348-17.862773 65.496834 0 73.171211 17.201189 0.396951-2.91097 5.954258 16.539605 5.689624 22.890813-1.455485 40.356635-25.404833 64.173666-91.430934 39.959684-52.662101-19.185941-70.524874-148.988758-34.270061-200.195374 19.847526-28.44812 71.583409-52.529784 114.321747-57.160873z" fill="#D0BE92" opacity="0.9"/>
    <path d="M1378.212172 333.570746c25.007882-4.631089 153.619848-1.587802 171.482621 5.689624 23.552397 9.659129 37.842615 51.338933 62.850497 57.160873 60.865745 14.157902 119.349787 5.160357 142.902184 68.672438 32.549942 87.593746-27.918853 171.48262-91.430934 182.994186-13.231684 2.381703-39.959685-5.689624-39.959685-5.689624-55.043804-20.376793-87.726063-62.718181-40.092002-102.942499 5.954258-5.160357-5.689624-17.201189-5.689624-17.201189-44.987725 32.020675-58.748676 65.761468-27.124951 97.517509 98.31141 98.31141 150.57656 12.173149 215.808761 11.114614 61.395012-1.190852 162.485076 75.28828 186.302106 119.879054-53.588319-23.817031-108.499806-40.356635-148.988758-44.723091-106.382737-11.379248-182.729552 15.745704-243.198346 50.545032-80.580954 46.310893-157.589353 136.154025-257.223931 154.413748-126.494896 22.890813-240.816643-48.295645-222.95387-165.792996 2.381703-15.87802 20.376793-34.137744 28.580437-45.781626 0.793901 0.132317 16.804238-4.234139 22.890812-5.689624-39.695051 158.250937 112.204678 211.839256 204.56183 155.339967 46.707843-28.580437 80.448637-74.494379 92.357152-142.902184 10.320713-59.674893-5.954258-107.176638-53.588319-142.902184 15.216436-50.545032 13.893268-94.209588-3.043287-138.138777-12.040832-30.565189-63.776715-78.596201 5.689624-91.430935z" fill="#D0BE92" opacity="0.9"/>
    <path d="M606.275746 1.852436c88.25533-7.012792 125.965629 16.274971 165.792997 62.850497 37.577982-19.847526 134.169273-10.982297 177.304561 34.270061 95.665073 100.693113 19.979842 196.622819-80.051686 246.638584-47.634061 23.817031-134.036956-2.91097-125.171728-59.542577 11.379248-71.980359 98.70836-85.873627 79.390102-9.791446-14.290218 0-1.455485 8.203644 0 5.689624 0 0 15.613387-7.277426 18.921308-28.712753 4.234139-29.506655-14.819486-48.295645-35.725546-50.677349-80.448637-8.997545-133.243055 101.22238-46.046259 147.930224 180.480165 96.591291 201.783176-130.596718 377.367618-91.563251 60.468794 13.364001 64.4383 76.082181 97.252875 97.252875 37.710298 24.346298 72.77426 4.763406 97.120559 39.959684 33.343843 47.766378 32.946892 111.940044 17.201188 171.482621 16.936555 19.053624 43.796873 48.824913 51.47125 62.850497 9.923763 18.127407 1.323168 66.290735 1.323168 66.290736-38.768833 253.122109-342.435974 130.993668-226.261791-20.773744-3.837188-0.661584 25.140199-6.483525 30.56519-5.42499 12.173149 1.984753 19.318258 16.671921 28.580436 22.890813-2.646337 24.213981-17.598139 42.076754-5.689624 62.850497 80.448637-142.902184-107.044321-139.064995-154.810699-50.545032-14.554852 27.124952-22.096912 73.965112-11.908515 113.130896 11.776198 45.913942 57.028557 79.787053 95.268123 95.268122 110.219925 44.723091 208.399018 8.997545 276.939139-47.634061 9.394495-7.674377 90.240083-64.305983 125.171728-80.448637-89.313865 83.359607-214.088642 204.95878-402.110867 166.719215-75.949864-15.48107-155.869234-51.8682-211.442306-95.268123-23.817031-18.656674-92.621786-73.568161-105.985786-101.354697-8.203644-16.804238-6.483525-26.992635-11.379248-51.471249 78.596201 108.102856 206.678899-28.84507 197.813671-139.064996-1.720119-21.699961-3.969505-42.473705-11.908515-59.542576-33.608477-73.568161-77.40535-74.494379-134.036956-74.494379-20.773743-26.860318-92.357152-77.40535-172.805789-41.679804-47.634061-32.814576-111.807727-58.748676-148.856441-56.631606-104.265667 5.954258-160.235689 38.5042-178.62773 136.947926-14.422535 75.420597 29.771288 125.039411 41.679804 175.716759-29.771288-68.540121-61.92428-122.393074-113.130896-122.12844-47.104794 0.264634-71.451092 32.814576-68.540121 68.540121 0.529267 5.42499 5.954258 23.817031 17.862773 35.725546 0 0 22.361545 9.394495 26.728001 11.908516-45.120041-44.061507-14.819486-104.265667 46.310893-89.710816 54.77917 12.96705 60.865745 116.571133 5.689624 160.103373-28.315803 22.361545-126.362579 31.226773-171.614938 28.580437C89.049231 734.358444 27.124952 686.459749 11.511565 618.845846c-7.012792-29.638971-17.333506-73.965112-5.689624-108.632123 2.249386-7.54206 16.936555-26.595684 22.890813-40.092002 0 0 6.880476-28.977387 5.689624-39.959685-6.615842-57.425507 17.862773-130.464401 91.430934-137.212559 65.629151-6.218891 40.488952 99.899212 211.574622 85.74131 22.229229-1.852436 47.501744-24.610932 58.219408-42.473705 22.758496-38.107249 7.674377-104.133351-46.707843-123.319292-21.832278-7.674377-54.514537-7.674377-66.423052 16.142655 0 0-2.91097 35.725546 2.91097 53.588318-5.954258-62.585864 92.357152-80.448637 92.357152 8.865228 0 157.853986-354.476806 26.860318-148.988758-175.849076 67.216953-66.290735 173.202739-78.463884 280.24706-45.781625C530.325882 34.667011 554.275229 5.160357 606.143429 1.190852z" fill="#D0BE92" opacity="0.9"/>
  </g>
</svg> 